<svg width="208" height="178" viewBox="0 0 208 178" fill="none" xmlns="http://www.w3.org/2000/svg">
<rect width="208" height="178" fill="#4D6269"/>
<path d="M43 131V60.4545H86.5319V34H127.255V60.4545H175V131H43Z" fill="#4D6269"/>
<path d="M43 60.4545V131H175V60.4545M43 60.4545H86.5319M43 60.4545L62.6596 95.7273H94.9574M175 60.4545H127.255M175 60.4545L153.936 95.7273H120.234M127.255 60.4545V34H86.5319V60.4545M127.255 60.4545H120.234M86.5319 60.4545H94.9574M94.9574 95.7273V81.0303H120.234V95.7273M94.9574 95.7273H120.234M94.9574 60.4545V41.3485H120.234V60.4545M94.9574 60.4545H120.234" stroke="white"/>
</svg>
