<svg width="245" height="159" viewBox="0 0 245 159" fill="none" xmlns="http://www.w3.org/2000/svg">
<rect x="0.5" y="0.5" width="119" height="158" stroke="#939395"/>
<rect x="24.5" y="15.5" width="22" height="18" stroke="#939395"/>
<rect x="24.5" y="89.5" width="22" height="18" stroke="#939395"/>
<rect x="24.5" y="52.5" width="22" height="18" stroke="#939395"/>
<rect x="74.5" y="15.5" width="22" height="18" stroke="#939395"/>
<rect x="74.5" y="89.5" width="22" height="18" stroke="#939395"/>
<rect x="74.5" y="52.5" width="22" height="18" stroke="#939395"/>
<rect x="47.5" y="125.5" width="24" height="33" stroke="#939395"/>
<rect x="169.5" y="125.5" width="24" height="33" stroke="#939395"/>
<path d="M120.5 52.5H242C243.381 52.5 244.5 53.6193 244.5 55V156C244.5 157.381 243.381 158.5 242 158.5H120.5V52.5Z" stroke="#939395"/>
<rect x="138.5" y="62.5" width="22" height="18" stroke="#939395"/>
<rect x="202.5" y="62.5" width="22" height="18" stroke="#939395"/>
<rect x="138.5" y="96.5" width="22" height="18" stroke="#939395"/>
<rect x="202.5" y="96.5" width="22" height="18" stroke="#939395"/>
</svg>
